<mxfile host="65bd71144e">
    <diagram name="Page-1" id="MenoA9UX80aZhf_iBhhd">
        <mxGraphModel dx="2391" dy="2190" grid="1" gridSize="10" guides="1" tooltips="1" connect="1" arrows="1" fold="1" page="1" pageScale="1" pageWidth="827" pageHeight="1169" math="0" shadow="0">
            <root>
                <mxCell id="0"/>
                <mxCell id="1" parent="0"/>
                <mxCell id="sfc8ipMuTCoacgXJyaX4-2" value="&lt;p style=&quot;margin:0px;margin-top:4px;margin-left:7px;text-align:left;&quot;&gt;&lt;b&gt;req&lt;/b&gt;  ReqDiagram&lt;/p&gt;" style="html=1;shape=mxgraph.sysml.package;overflow=fill;labelX=110;strokeWidth=2;align=center;" parent="1" vertex="1">
                    <mxGeometry x="-190" y="-1080" width="1430" height="950" as="geometry"/>
                </mxCell>
                <mxCell id="sfc8ipMuTCoacgXJyaX4-11" value="&amp;lt;&amp;lt;requirement&amp;gt;&amp;gt;&lt;br&gt;&lt;span style=&quot;color: rgb(0, 0, 0); font-family: Calibri; font-size: 14.6667px; text-align: left; white-space-collapse: preserve; background-color: rgb(255, 255, 255);&quot;&gt;Cloud File Storage System&lt;/span&gt;" style="shape=rect;html=1;whiteSpace=wrap;align=center;" parent="1" vertex="1">
                    <mxGeometry x="580" y="-1060" width="180" height="80" as="geometry"/>
                </mxCell>
                <mxCell id="sfc8ipMuTCoacgXJyaX4-12" value="&amp;lt;&amp;lt;requirement&amp;gt;&amp;gt;&lt;br&gt;Functional&amp;nbsp;&lt;div&gt;Requirement&lt;/div&gt;" style="shape=rect;html=1;whiteSpace=wrap;align=center;" parent="1" vertex="1">
                    <mxGeometry x="290" y="-920" width="160" height="80" as="geometry"/>
                </mxCell>
                <mxCell id="sfc8ipMuTCoacgXJyaX4-13" value="&amp;lt;&amp;lt;requirement&amp;gt;&amp;gt;&lt;br&gt;Non-functional&amp;nbsp;&lt;div&gt;Requirement&lt;/div&gt;" style="shape=rect;html=1;whiteSpace=wrap;align=center;" parent="1" vertex="1">
                    <mxGeometry x="880" y="-920" width="160" height="80" as="geometry"/>
                </mxCell>
                <mxCell id="sfc8ipMuTCoacgXJyaX4-14" value="" style="rounded=0;html=1;labelBackgroundColor=none;endArrow=none;edgeStyle=elbowEdgeStyle;elbow=vertical;startArrow=sysMLPackCont;startSize=12;" parent="1" source="sfc8ipMuTCoacgXJyaX4-11" target="sfc8ipMuTCoacgXJyaX4-12" edge="1">
                    <mxGeometry relative="1" as="geometry"/>
                </mxCell>
                <mxCell id="sfc8ipMuTCoacgXJyaX4-15" value="" style="rounded=0;html=1;labelBackgroundColor=none;endArrow=none;edgeStyle=elbowEdgeStyle;elbow=vertical;startArrow=sysMLPackCont;startSize=12;" parent="1" source="sfc8ipMuTCoacgXJyaX4-11" target="sfc8ipMuTCoacgXJyaX4-13" edge="1">
                    <mxGeometry relative="1" as="geometry"/>
                </mxCell>
                <mxCell id="sfc8ipMuTCoacgXJyaX4-22" value="" style="fontStyle=1;align=center;verticalAlign=middle;childLayout=stackLayout;horizontal=1;horizontalStack=0;resizeParent=1;resizeParentMax=0;resizeLast=0;marginBottom=0;" parent="1" vertex="1">
                    <mxGeometry x="270" y="-780" width="200" height="80" as="geometry"/>
                </mxCell>
                <mxCell id="sfc8ipMuTCoacgXJyaX4-23" value="&amp;lt;&amp;lt;requirement&amp;gt;&amp;gt;" style="html=1;align=center;spacing=0;verticalAlign=middle;strokeColor=none;fillColor=none;whiteSpace=wrap;spacingTop=3;" parent="sfc8ipMuTCoacgXJyaX4-22" vertex="1">
                    <mxGeometry width="200" height="16" as="geometry"/>
                </mxCell>
                <mxCell id="sfc8ipMuTCoacgXJyaX4-24" value="Signup" style="html=1;align=center;spacing=0;verticalAlign=middle;strokeColor=none;fillColor=none;whiteSpace=wrap;fontStyle=1" parent="sfc8ipMuTCoacgXJyaX4-22" vertex="1">
                    <mxGeometry y="16" width="200" height="18" as="geometry"/>
                </mxCell>
                <mxCell id="sfc8ipMuTCoacgXJyaX4-25" value="" style="line;strokeWidth=0.25;fillColor=none;align=left;verticalAlign=middle;spacingTop=-1;spacingLeft=3;spacingRight=3;rotatable=0;labelPosition=right;points=[];portConstraint=eastwest;" parent="sfc8ipMuTCoacgXJyaX4-22" vertex="1">
                    <mxGeometry y="34" width="200" height="8" as="geometry"/>
                </mxCell>
                <mxCell id="sfc8ipMuTCoacgXJyaX4-26" value="Id= 001" style="html=1;align=left;spacing=0;verticalAlign=middle;strokeColor=none;fillColor=none;whiteSpace=wrap;spacingLeft=10;" parent="sfc8ipMuTCoacgXJyaX4-22" vertex="1">
                    <mxGeometry y="42" width="200" height="16" as="geometry"/>
                </mxCell>
                <mxCell id="sfc8ipMuTCoacgXJyaX4-28" value="&lt;span style=&quot;&quot;&gt;&amp;nbsp;text= &quot;user registration functionally&quot;&lt;/span&gt;" style="html=1;align=left;spacing=0;verticalAlign=middle;strokeColor=none;fillColor=none;whiteSpace=wrap;" parent="sfc8ipMuTCoacgXJyaX4-22" vertex="1">
                    <mxGeometry y="58" width="200" height="22" as="geometry"/>
                </mxCell>
                <mxCell id="sfc8ipMuTCoacgXJyaX4-32" value="" style="rounded=0;html=1;labelBackgroundColor=none;endArrow=none;elbow=vertical;startArrow=sysMLPackCont;startSize=12;entryX=0.5;entryY=0;entryDx=0;entryDy=0;exitX=0.5;exitY=1;exitDx=0;exitDy=0;" parent="1" source="sfc8ipMuTCoacgXJyaX4-12" target="sfc8ipMuTCoacgXJyaX4-23" edge="1">
                    <mxGeometry relative="1" as="geometry">
                        <mxPoint x="380" y="-850" as="sourcePoint"/>
                        <mxPoint x="110" y="-640" as="targetPoint"/>
                    </mxGeometry>
                </mxCell>
                <mxCell id="GovepnS-HVRkM9b20J2A-2" value="" style="fontStyle=1;align=center;verticalAlign=middle;childLayout=stackLayout;horizontal=1;horizontalStack=0;resizeParent=1;resizeParentMax=0;resizeLast=0;marginBottom=0;" parent="1" vertex="1">
                    <mxGeometry x="250" y="-640" width="240" height="100" as="geometry"/>
                </mxCell>
                <mxCell id="GovepnS-HVRkM9b20J2A-3" value="&amp;lt;&amp;lt;requirement&amp;gt;&amp;gt;" style="html=1;align=center;spacing=0;verticalAlign=middle;strokeColor=none;fillColor=none;whiteSpace=wrap;spacingTop=3;" parent="GovepnS-HVRkM9b20J2A-2" vertex="1">
                    <mxGeometry width="240" height="16" as="geometry"/>
                </mxCell>
                <mxCell id="GovepnS-HVRkM9b20J2A-4" value="User Authentication" style="html=1;align=center;spacing=0;verticalAlign=middle;strokeColor=none;fillColor=none;whiteSpace=wrap;fontStyle=1" parent="GovepnS-HVRkM9b20J2A-2" vertex="1">
                    <mxGeometry y="16" width="240" height="18" as="geometry"/>
                </mxCell>
                <mxCell id="GovepnS-HVRkM9b20J2A-5" value="" style="line;strokeWidth=0.25;fillColor=none;align=left;verticalAlign=middle;spacingTop=-1;spacingLeft=3;spacingRight=3;rotatable=0;labelPosition=right;points=[];portConstraint=eastwest;" parent="GovepnS-HVRkM9b20J2A-2" vertex="1">
                    <mxGeometry y="34" width="240" height="8" as="geometry"/>
                </mxCell>
                <mxCell id="GovepnS-HVRkM9b20J2A-6" value="Id= 002" style="html=1;align=left;spacing=0;verticalAlign=middle;strokeColor=none;fillColor=none;whiteSpace=wrap;spacingLeft=10;" parent="GovepnS-HVRkM9b20J2A-2" vertex="1">
                    <mxGeometry y="42" width="240" height="16" as="geometry"/>
                </mxCell>
                <mxCell id="GovepnS-HVRkM9b20J2A-7" value="text=&quot;secure authentication&quot;" style="html=1;align=left;spacing=0;verticalAlign=middle;strokeColor=none;fillColor=none;whiteSpace=wrap;spacingLeft=10;" parent="GovepnS-HVRkM9b20J2A-2" vertex="1">
                    <mxGeometry y="58" width="240" height="16" as="geometry"/>
                </mxCell>
                <mxCell id="GovepnS-HVRkM9b20J2A-8" value="" style="html=1;align=center;spacing=0;verticalAlign=middle;strokeColor=none;fillColor=none;whiteSpace=wrap;" parent="GovepnS-HVRkM9b20J2A-2" vertex="1">
                    <mxGeometry y="74" width="240" height="26" as="geometry"/>
                </mxCell>
                <mxCell id="GovepnS-HVRkM9b20J2A-9" value="&amp;lt;&amp;lt;depends on&amp;gt;&amp;gt;" style="edgeStyle=none;html=1;endArrow=open;endSize=12;dashed=1;verticalAlign=bottom;rounded=0;entryX=0.5;entryY=1;entryDx=0;entryDy=0;exitX=0.5;exitY=0;exitDx=0;exitDy=0;" parent="1" source="GovepnS-HVRkM9b20J2A-3" target="sfc8ipMuTCoacgXJyaX4-28" edge="1">
                    <mxGeometry width="160" relative="1" as="geometry">
                        <mxPoint x="390" y="-632" as="sourcePoint"/>
                        <mxPoint x="480" y="-630" as="targetPoint"/>
                    </mxGeometry>
                </mxCell>
                <mxCell id="GovepnS-HVRkM9b20J2A-10" value="" style="fontStyle=1;align=center;verticalAlign=middle;childLayout=stackLayout;horizontal=1;horizontalStack=0;resizeParent=1;resizeParentMax=0;resizeLast=0;marginBottom=0;" parent="1" vertex="1">
                    <mxGeometry x="150" y="-460" width="200" height="100" as="geometry"/>
                </mxCell>
                <mxCell id="GovepnS-HVRkM9b20J2A-11" value="&amp;lt;&amp;lt;requirement&amp;gt;&amp;gt;" style="html=1;align=center;spacing=0;verticalAlign=middle;strokeColor=none;fillColor=none;whiteSpace=wrap;spacingTop=3;" parent="GovepnS-HVRkM9b20J2A-10" vertex="1">
                    <mxGeometry width="200" height="16" as="geometry"/>
                </mxCell>
                <mxCell id="GovepnS-HVRkM9b20J2A-12" value="Log in" style="html=1;align=center;spacing=0;verticalAlign=middle;strokeColor=none;fillColor=none;whiteSpace=wrap;fontStyle=1" parent="GovepnS-HVRkM9b20J2A-10" vertex="1">
                    <mxGeometry y="16" width="200" height="18" as="geometry"/>
                </mxCell>
                <mxCell id="GovepnS-HVRkM9b20J2A-13" value="" style="line;strokeWidth=0.25;fillColor=none;align=left;verticalAlign=middle;spacingTop=-1;spacingLeft=3;spacingRight=3;rotatable=0;labelPosition=right;points=[];portConstraint=eastwest;" parent="GovepnS-HVRkM9b20J2A-10" vertex="1">
                    <mxGeometry y="34" width="200" height="8" as="geometry"/>
                </mxCell>
                <mxCell id="GovepnS-HVRkM9b20J2A-14" value="Id= 003" style="html=1;align=left;spacing=0;verticalAlign=middle;strokeColor=none;fillColor=none;whiteSpace=wrap;spacingLeft=10;" parent="GovepnS-HVRkM9b20J2A-10" vertex="1">
                    <mxGeometry y="42" width="200" height="16" as="geometry"/>
                </mxCell>
                <mxCell id="GovepnS-HVRkM9b20J2A-15" value="text=&quot;secure authentication&quot;" style="html=1;align=left;spacing=0;verticalAlign=middle;strokeColor=none;fillColor=none;whiteSpace=wrap;spacingLeft=10;" parent="GovepnS-HVRkM9b20J2A-10" vertex="1">
                    <mxGeometry y="58" width="200" height="16" as="geometry"/>
                </mxCell>
                <mxCell id="GovepnS-HVRkM9b20J2A-16" value="" style="html=1;align=center;spacing=0;verticalAlign=middle;strokeColor=none;fillColor=none;whiteSpace=wrap;" parent="GovepnS-HVRkM9b20J2A-10" vertex="1">
                    <mxGeometry y="74" width="200" height="26" as="geometry"/>
                </mxCell>
                <mxCell id="GovepnS-HVRkM9b20J2A-17" value="&amp;lt;&amp;lt;depends on&amp;gt;&amp;gt;" style="edgeStyle=none;html=1;endArrow=open;endSize=12;dashed=1;verticalAlign=bottom;rounded=0;exitX=0.643;exitY=-0.083;exitDx=0;exitDy=0;entryX=0.128;entryY=0.872;entryDx=0;entryDy=0;entryPerimeter=0;exitPerimeter=0;" parent="1" source="GovepnS-HVRkM9b20J2A-11" target="GovepnS-HVRkM9b20J2A-8" edge="1">
                    <mxGeometry width="160" relative="1" as="geometry">
                        <mxPoint x="190" y="-446" as="sourcePoint"/>
                        <mxPoint x="254.7199999999998" y="-550.0039999999999" as="targetPoint"/>
                    </mxGeometry>
                </mxCell>
                <mxCell id="GovepnS-HVRkM9b20J2A-18" value="" style="fontStyle=1;align=center;verticalAlign=middle;childLayout=stackLayout;horizontal=1;horizontalStack=0;resizeParent=1;resizeParentMax=0;resizeLast=0;marginBottom=0;" parent="1" vertex="1">
                    <mxGeometry x="400" y="-460" width="200" height="100" as="geometry"/>
                </mxCell>
                <mxCell id="GovepnS-HVRkM9b20J2A-19" value="&amp;lt;&amp;lt;requirement&amp;gt;&amp;gt;" style="html=1;align=center;spacing=0;verticalAlign=middle;strokeColor=none;fillColor=none;whiteSpace=wrap;spacingTop=3;" parent="GovepnS-HVRkM9b20J2A-18" vertex="1">
                    <mxGeometry width="200" height="16" as="geometry"/>
                </mxCell>
                <mxCell id="GovepnS-HVRkM9b20J2A-20" value="Log out" style="html=1;align=center;spacing=0;verticalAlign=middle;strokeColor=none;fillColor=none;whiteSpace=wrap;fontStyle=1" parent="GovepnS-HVRkM9b20J2A-18" vertex="1">
                    <mxGeometry y="16" width="200" height="18" as="geometry"/>
                </mxCell>
                <mxCell id="GovepnS-HVRkM9b20J2A-21" value="" style="line;strokeWidth=0.25;fillColor=none;align=left;verticalAlign=middle;spacingTop=-1;spacingLeft=3;spacingRight=3;rotatable=0;labelPosition=right;points=[];portConstraint=eastwest;" parent="GovepnS-HVRkM9b20J2A-18" vertex="1">
                    <mxGeometry y="34" width="200" height="8" as="geometry"/>
                </mxCell>
                <mxCell id="GovepnS-HVRkM9b20J2A-22" value="Id= 004" style="html=1;align=left;spacing=0;verticalAlign=middle;strokeColor=none;fillColor=none;whiteSpace=wrap;spacingLeft=10;" parent="GovepnS-HVRkM9b20J2A-18" vertex="1">
                    <mxGeometry y="42" width="200" height="16" as="geometry"/>
                </mxCell>
                <mxCell id="GovepnS-HVRkM9b20J2A-23" value="text=&quot;use session temination&quot;" style="html=1;align=left;spacing=0;verticalAlign=middle;strokeColor=none;fillColor=none;whiteSpace=wrap;spacingLeft=10;" parent="GovepnS-HVRkM9b20J2A-18" vertex="1">
                    <mxGeometry y="58" width="200" height="16" as="geometry"/>
                </mxCell>
                <mxCell id="GovepnS-HVRkM9b20J2A-24" value="" style="html=1;align=center;spacing=0;verticalAlign=middle;strokeColor=none;fillColor=none;whiteSpace=wrap;" parent="GovepnS-HVRkM9b20J2A-18" vertex="1">
                    <mxGeometry y="74" width="200" height="26" as="geometry"/>
                </mxCell>
                <mxCell id="GovepnS-HVRkM9b20J2A-25" value="&amp;lt;&amp;lt;depends on&amp;gt;&amp;gt;" style="edgeStyle=none;html=1;endArrow=open;endSize=12;dashed=1;verticalAlign=bottom;rounded=0;exitX=0.25;exitY=0;exitDx=0;exitDy=0;entryX=0.822;entryY=0.846;entryDx=0;entryDy=0;entryPerimeter=0;" parent="1" source="GovepnS-HVRkM9b20J2A-19" target="GovepnS-HVRkM9b20J2A-8" edge="1">
                    <mxGeometry width="160" relative="1" as="geometry">
                        <mxPoint x="450" y="-450" as="sourcePoint"/>
                        <mxPoint x="500" y="-520" as="targetPoint"/>
                    </mxGeometry>
                </mxCell>
                <mxCell id="GovepnS-HVRkM9b20J2A-26" value="" style="fontStyle=1;align=center;verticalAlign=middle;childLayout=stackLayout;horizontal=1;horizontalStack=0;resizeParent=1;resizeParentMax=0;resizeLast=0;marginBottom=0;" parent="1" vertex="1">
                    <mxGeometry x="140" y="-275" width="200" height="100" as="geometry"/>
                </mxCell>
                <mxCell id="GovepnS-HVRkM9b20J2A-27" value="&amp;lt;&amp;lt;requirement&amp;gt;&amp;gt;" style="html=1;align=center;spacing=0;verticalAlign=middle;strokeColor=none;fillColor=none;whiteSpace=wrap;spacingTop=3;" parent="GovepnS-HVRkM9b20J2A-26" vertex="1">
                    <mxGeometry width="200" height="16" as="geometry"/>
                </mxCell>
                <mxCell id="GovepnS-HVRkM9b20J2A-28" value="Authentication Process" style="html=1;align=center;spacing=0;verticalAlign=middle;strokeColor=none;fillColor=none;whiteSpace=wrap;fontStyle=1" parent="GovepnS-HVRkM9b20J2A-26" vertex="1">
                    <mxGeometry y="16" width="200" height="18" as="geometry"/>
                </mxCell>
                <mxCell id="GovepnS-HVRkM9b20J2A-29" value="" style="line;strokeWidth=0.25;fillColor=none;align=left;verticalAlign=middle;spacingTop=-1;spacingLeft=3;spacingRight=3;rotatable=0;labelPosition=right;points=[];portConstraint=eastwest;" parent="GovepnS-HVRkM9b20J2A-26" vertex="1">
                    <mxGeometry y="34" width="200" height="8" as="geometry"/>
                </mxCell>
                <mxCell id="GovepnS-HVRkM9b20J2A-30" value="Id= 005" style="html=1;align=left;spacing=0;verticalAlign=middle;strokeColor=none;fillColor=none;whiteSpace=wrap;spacingLeft=10;" parent="GovepnS-HVRkM9b20J2A-26" vertex="1">
                    <mxGeometry y="42" width="200" height="16" as="geometry"/>
                </mxCell>
                <mxCell id="GovepnS-HVRkM9b20J2A-31" value="text=&quot;call authentication process&quot;" style="html=1;align=left;spacing=0;verticalAlign=middle;strokeColor=none;fillColor=none;whiteSpace=wrap;spacingLeft=10;" parent="GovepnS-HVRkM9b20J2A-26" vertex="1">
                    <mxGeometry y="58" width="200" height="16" as="geometry"/>
                </mxCell>
                <mxCell id="GovepnS-HVRkM9b20J2A-32" value="" style="html=1;align=center;spacing=0;verticalAlign=middle;strokeColor=none;fillColor=none;whiteSpace=wrap;" parent="GovepnS-HVRkM9b20J2A-26" vertex="1">
                    <mxGeometry y="74" width="200" height="26" as="geometry"/>
                </mxCell>
                <mxCell id="GovepnS-HVRkM9b20J2A-33" value="&amp;lt;&amp;lt;requires&amp;gt;&amp;gt;" style="edgeStyle=none;html=1;endArrow=open;endSize=12;dashed=1;verticalAlign=bottom;rounded=0;exitX=0.54;exitY=-0.021;exitDx=0;exitDy=0;exitPerimeter=0;" parent="1" source="GovepnS-HVRkM9b20J2A-27" target="GovepnS-HVRkM9b20J2A-16" edge="1">
                    <mxGeometry width="160" relative="1" as="geometry">
                        <mxPoint x="190" y="-265" as="sourcePoint"/>
                        <mxPoint x="240" y="-335" as="targetPoint"/>
                    </mxGeometry>
                </mxCell>
                <mxCell id="GovepnS-HVRkM9b20J2A-34" value="" style="fontStyle=1;align=center;verticalAlign=middle;childLayout=stackLayout;horizontal=1;horizontalStack=0;resizeParent=1;resizeParentMax=0;resizeLast=0;marginBottom=0;" parent="1" vertex="1">
                    <mxGeometry x="400" y="-275" width="200" height="100" as="geometry"/>
                </mxCell>
                <mxCell id="GovepnS-HVRkM9b20J2A-35" value="&amp;lt;&amp;lt;requirement&amp;gt;&amp;gt;" style="html=1;align=center;spacing=0;verticalAlign=middle;strokeColor=none;fillColor=none;whiteSpace=wrap;spacingTop=3;" parent="GovepnS-HVRkM9b20J2A-34" vertex="1">
                    <mxGeometry width="200" height="16" as="geometry"/>
                </mxCell>
                <mxCell id="GovepnS-HVRkM9b20J2A-36" value="Session Temination" style="html=1;align=center;spacing=0;verticalAlign=middle;strokeColor=none;fillColor=none;whiteSpace=wrap;fontStyle=1" parent="GovepnS-HVRkM9b20J2A-34" vertex="1">
                    <mxGeometry y="16" width="200" height="18" as="geometry"/>
                </mxCell>
                <mxCell id="GovepnS-HVRkM9b20J2A-37" value="" style="line;strokeWidth=0.25;fillColor=none;align=left;verticalAlign=middle;spacingTop=-1;spacingLeft=3;spacingRight=3;rotatable=0;labelPosition=right;points=[];portConstraint=eastwest;" parent="GovepnS-HVRkM9b20J2A-34" vertex="1">
                    <mxGeometry y="34" width="200" height="8" as="geometry"/>
                </mxCell>
                <mxCell id="GovepnS-HVRkM9b20J2A-38" value="Id= 006" style="html=1;align=left;spacing=0;verticalAlign=middle;strokeColor=none;fillColor=none;whiteSpace=wrap;spacingLeft=10;" parent="GovepnS-HVRkM9b20J2A-34" vertex="1">
                    <mxGeometry y="42" width="200" height="16" as="geometry"/>
                </mxCell>
                <mxCell id="GovepnS-HVRkM9b20J2A-39" value="text=&quot;Trigger session trmination&quot;" style="html=1;align=left;spacing=0;verticalAlign=middle;strokeColor=none;fillColor=none;whiteSpace=wrap;spacingLeft=10;" parent="GovepnS-HVRkM9b20J2A-34" vertex="1">
                    <mxGeometry y="58" width="200" height="16" as="geometry"/>
                </mxCell>
                <mxCell id="GovepnS-HVRkM9b20J2A-40" value="" style="html=1;align=center;spacing=0;verticalAlign=middle;strokeColor=none;fillColor=none;whiteSpace=wrap;" parent="GovepnS-HVRkM9b20J2A-34" vertex="1">
                    <mxGeometry y="74" width="200" height="26" as="geometry"/>
                </mxCell>
                <mxCell id="GovepnS-HVRkM9b20J2A-41" value="&amp;lt;&amp;lt;triggers&amp;gt;&amp;gt;" style="edgeStyle=none;html=1;endArrow=open;endSize=12;dashed=1;verticalAlign=bottom;rounded=0;exitX=0.5;exitY=0;exitDx=0;exitDy=0;entryX=0.5;entryY=1;entryDx=0;entryDy=0;" parent="1" source="GovepnS-HVRkM9b20J2A-35" target="GovepnS-HVRkM9b20J2A-24" edge="1">
                    <mxGeometry width="160" relative="1" as="geometry">
                        <mxPoint x="450" y="-265" as="sourcePoint"/>
                        <mxPoint x="500" y="-335" as="targetPoint"/>
                    </mxGeometry>
                </mxCell>
                <mxCell id="GovepnS-HVRkM9b20J2A-42" value="" style="fontStyle=1;align=center;verticalAlign=middle;childLayout=stackLayout;horizontal=1;horizontalStack=0;resizeParent=1;resizeParentMax=0;resizeLast=0;marginBottom=0;" parent="1" vertex="1">
                    <mxGeometry x="680" y="-780" width="200" height="116" as="geometry"/>
                </mxCell>
                <mxCell id="GovepnS-HVRkM9b20J2A-43" value="&amp;lt;&amp;lt;requirement&amp;gt;&amp;gt;" style="html=1;align=center;spacing=0;verticalAlign=middle;strokeColor=none;fillColor=none;whiteSpace=wrap;spacingTop=3;" parent="GovepnS-HVRkM9b20J2A-42" vertex="1">
                    <mxGeometry width="200" height="16" as="geometry"/>
                </mxCell>
                <mxCell id="GovepnS-HVRkM9b20J2A-44" value="Upload" style="html=1;align=center;spacing=0;verticalAlign=middle;strokeColor=none;fillColor=none;whiteSpace=wrap;fontStyle=1" parent="GovepnS-HVRkM9b20J2A-42" vertex="1">
                    <mxGeometry y="16" width="200" height="18" as="geometry"/>
                </mxCell>
                <mxCell id="GovepnS-HVRkM9b20J2A-45" value="" style="line;strokeWidth=0.25;fillColor=none;align=left;verticalAlign=middle;spacingTop=-1;spacingLeft=3;spacingRight=3;rotatable=0;labelPosition=right;points=[];portConstraint=eastwest;" parent="GovepnS-HVRkM9b20J2A-42" vertex="1">
                    <mxGeometry y="34" width="200" height="8" as="geometry"/>
                </mxCell>
                <mxCell id="GovepnS-HVRkM9b20J2A-46" value="Id= 007" style="html=1;align=left;spacing=0;verticalAlign=middle;strokeColor=none;fillColor=none;whiteSpace=wrap;spacingLeft=10;" parent="GovepnS-HVRkM9b20J2A-42" vertex="1">
                    <mxGeometry y="42" width="200" height="16" as="geometry"/>
                </mxCell>
                <mxCell id="GovepnS-HVRkM9b20J2A-47" value="text=&quot;upload documents by authentication&quot;" style="html=1;align=left;spacing=0;verticalAlign=middle;strokeColor=none;fillColor=none;whiteSpace=wrap;spacingLeft=10;" parent="GovepnS-HVRkM9b20J2A-42" vertex="1">
                    <mxGeometry y="58" width="200" height="32" as="geometry"/>
                </mxCell>
                <mxCell id="GovepnS-HVRkM9b20J2A-48" value="" style="html=1;align=center;spacing=0;verticalAlign=middle;strokeColor=none;fillColor=none;whiteSpace=wrap;" parent="GovepnS-HVRkM9b20J2A-42" vertex="1">
                    <mxGeometry y="90" width="200" height="26" as="geometry"/>
                </mxCell>
                <mxCell id="GovepnS-HVRkM9b20J2A-49" value="&amp;lt;&amp;lt;depends on&amp;gt;&amp;gt;" style="edgeStyle=none;html=1;endArrow=open;endSize=12;dashed=1;verticalAlign=bottom;rounded=0;exitX=0;exitY=0.75;exitDx=0;exitDy=0;entryX=1;entryY=0.5;entryDx=0;entryDy=0;" parent="1" source="GovepnS-HVRkM9b20J2A-46" target="GovepnS-HVRkM9b20J2A-7" edge="1">
                    <mxGeometry width="160" relative="1" as="geometry">
                        <mxPoint x="680" y="-780" as="sourcePoint"/>
                        <mxPoint x="730" y="-850" as="targetPoint"/>
                    </mxGeometry>
                </mxCell>
                <mxCell id="GovepnS-HVRkM9b20J2A-57" value="&amp;lt;&amp;lt;verify&amp;gt;&amp;gt;" style="edgeStyle=none;html=1;endArrow=open;endSize=12;dashed=1;verticalAlign=bottom;rounded=0;entryX=0;entryY=0.25;entryDx=0;entryDy=0;exitX=1;exitY=0;exitDx=0;exitDy=0;" parent="1" target="GovepnS-HVRkM9b20J2A-15" edge="1">
                    <mxGeometry width="160" relative="1" as="geometry">
                        <mxPoint x="30" y="-399" as="sourcePoint"/>
                        <mxPoint x="-39" y="-540" as="targetPoint"/>
                    </mxGeometry>
                </mxCell>
                <mxCell id="GovepnS-HVRkM9b20J2A-58" value="" style="fontStyle=1;align=center;verticalAlign=middle;childLayout=stackLayout;horizontal=1;horizontalStack=0;resizeParent=1;resizeParentMax=0;resizeLast=0;marginBottom=0;" parent="1" vertex="1">
                    <mxGeometry x="-170" y="-450" width="200" height="100" as="geometry"/>
                </mxCell>
                <mxCell id="GovepnS-HVRkM9b20J2A-59" value="&amp;lt;&amp;lt;testCase&amp;gt;&amp;gt;" style="html=1;align=center;spacing=0;verticalAlign=middle;strokeColor=none;fillColor=none;whiteSpace=wrap;spacingTop=3;" parent="GovepnS-HVRkM9b20J2A-58" vertex="1">
                    <mxGeometry width="200" height="16" as="geometry"/>
                </mxCell>
                <mxCell id="GovepnS-HVRkM9b20J2A-60" value="Verify Error Message" style="html=1;align=center;spacing=0;verticalAlign=middle;strokeColor=none;fillColor=none;whiteSpace=wrap;fontStyle=1" parent="GovepnS-HVRkM9b20J2A-58" vertex="1">
                    <mxGeometry y="16" width="200" height="18" as="geometry"/>
                </mxCell>
                <mxCell id="GovepnS-HVRkM9b20J2A-61" value="" style="line;strokeWidth=0.25;fillColor=none;align=left;verticalAlign=middle;spacingTop=-1;spacingLeft=3;spacingRight=3;rotatable=0;labelPosition=right;points=[];portConstraint=eastwest;" parent="GovepnS-HVRkM9b20J2A-58" vertex="1">
                    <mxGeometry y="34" width="200" height="8" as="geometry"/>
                </mxCell>
                <mxCell id="GovepnS-HVRkM9b20J2A-62" value="verify that login feature display an error message when the entered credentials are incorrect" style="html=1;align=center;spacing=0;verticalAlign=middle;strokeColor=none;fillColor=none;whiteSpace=wrap;" parent="GovepnS-HVRkM9b20J2A-58" vertex="1">
                    <mxGeometry y="42" width="200" height="58" as="geometry"/>
                </mxCell>
                <mxCell id="GovepnS-HVRkM9b20J2A-63" value="" style="rounded=0;html=1;labelBackgroundColor=none;endArrow=none;elbow=vertical;startArrow=sysMLPackCont;startSize=12;entryX=0.5;entryY=0;entryDx=0;entryDy=0;" parent="1" target="GovepnS-HVRkM9b20J2A-43" edge="1">
                    <mxGeometry relative="1" as="geometry">
                        <mxPoint x="780" y="-950" as="sourcePoint"/>
                        <mxPoint x="1010" y="-800" as="targetPoint"/>
                    </mxGeometry>
                </mxCell>
                <mxCell id="GovepnS-HVRkM9b20J2A-64" value="" style="fontStyle=1;align=center;verticalAlign=middle;childLayout=stackLayout;horizontal=1;horizontalStack=0;resizeParent=1;resizeParentMax=0;resizeLast=0;marginBottom=0;" parent="1" vertex="1">
                    <mxGeometry x="580" y="-580" width="240" height="100" as="geometry"/>
                </mxCell>
                <mxCell id="GovepnS-HVRkM9b20J2A-65" value="&amp;lt;&amp;lt;requirement&amp;gt;&amp;gt;" style="html=1;align=center;spacing=0;verticalAlign=middle;strokeColor=none;fillColor=none;whiteSpace=wrap;spacingTop=3;" parent="GovepnS-HVRkM9b20J2A-64" vertex="1">
                    <mxGeometry width="240" height="16" as="geometry"/>
                </mxCell>
                <mxCell id="GovepnS-HVRkM9b20J2A-66" value="Organized uploaded files" style="html=1;align=center;spacing=0;verticalAlign=middle;strokeColor=none;fillColor=none;whiteSpace=wrap;fontStyle=1" parent="GovepnS-HVRkM9b20J2A-64" vertex="1">
                    <mxGeometry y="16" width="240" height="18" as="geometry"/>
                </mxCell>
                <mxCell id="GovepnS-HVRkM9b20J2A-67" value="" style="line;strokeWidth=0.25;fillColor=none;align=left;verticalAlign=middle;spacingTop=-1;spacingLeft=3;spacingRight=3;rotatable=0;labelPosition=right;points=[];portConstraint=eastwest;" parent="GovepnS-HVRkM9b20J2A-64" vertex="1">
                    <mxGeometry y="34" width="240" height="8" as="geometry"/>
                </mxCell>
                <mxCell id="GovepnS-HVRkM9b20J2A-68" value="Id= 008" style="html=1;align=left;spacing=0;verticalAlign=middle;strokeColor=none;fillColor=none;whiteSpace=wrap;spacingLeft=10;" parent="GovepnS-HVRkM9b20J2A-64" vertex="1">
                    <mxGeometry y="42" width="240" height="16" as="geometry"/>
                </mxCell>
                <mxCell id="GovepnS-HVRkM9b20J2A-69" value="text=&quot; arrange the file by name or time&quot;" style="html=1;align=left;spacing=0;verticalAlign=middle;strokeColor=none;fillColor=none;whiteSpace=wrap;spacingLeft=10;" parent="GovepnS-HVRkM9b20J2A-64" vertex="1">
                    <mxGeometry y="58" width="240" height="16" as="geometry"/>
                </mxCell>
                <mxCell id="GovepnS-HVRkM9b20J2A-70" value="" style="html=1;align=center;spacing=0;verticalAlign=middle;strokeColor=none;fillColor=none;whiteSpace=wrap;" parent="GovepnS-HVRkM9b20J2A-64" vertex="1">
                    <mxGeometry y="74" width="240" height="26" as="geometry"/>
                </mxCell>
                <mxCell id="GovepnS-HVRkM9b20J2A-71" value="&amp;lt;&amp;lt;depends on&amp;gt;&amp;gt;" style="edgeStyle=none;html=1;endArrow=open;endSize=12;dashed=1;verticalAlign=bottom;rounded=0;entryX=0.25;entryY=1;entryDx=0;entryDy=0;exitX=0.619;exitY=-0.132;exitDx=0;exitDy=0;exitPerimeter=0;" parent="1" source="GovepnS-HVRkM9b20J2A-65" target="GovepnS-HVRkM9b20J2A-48" edge="1">
                    <mxGeometry width="160" relative="1" as="geometry">
                        <mxPoint x="780" y="-570" as="sourcePoint"/>
                        <mxPoint x="700" y="-664" as="targetPoint"/>
                    </mxGeometry>
                </mxCell>
                <mxCell id="GovepnS-HVRkM9b20J2A-73" value="" style="fontStyle=1;align=center;verticalAlign=middle;childLayout=stackLayout;horizontal=1;horizontalStack=0;resizeParent=1;resizeParentMax=0;resizeLast=0;marginBottom=0;" parent="1" vertex="1">
                    <mxGeometry x="830" y="-580" width="240" height="100" as="geometry"/>
                </mxCell>
                <mxCell id="GovepnS-HVRkM9b20J2A-74" value="&amp;lt;&amp;lt;requirement&amp;gt;&amp;gt;" style="html=1;align=center;spacing=0;verticalAlign=middle;strokeColor=none;fillColor=none;whiteSpace=wrap;spacingTop=3;" parent="GovepnS-HVRkM9b20J2A-73" vertex="1">
                    <mxGeometry width="240" height="16" as="geometry"/>
                </mxCell>
                <mxCell id="GovepnS-HVRkM9b20J2A-75" value="Shared documents" style="html=1;align=center;spacing=0;verticalAlign=middle;strokeColor=none;fillColor=none;whiteSpace=wrap;fontStyle=1" parent="GovepnS-HVRkM9b20J2A-73" vertex="1">
                    <mxGeometry y="16" width="240" height="18" as="geometry"/>
                </mxCell>
                <mxCell id="GovepnS-HVRkM9b20J2A-76" value="" style="line;strokeWidth=0.25;fillColor=none;align=left;verticalAlign=middle;spacingTop=-1;spacingLeft=3;spacingRight=3;rotatable=0;labelPosition=right;points=[];portConstraint=eastwest;" parent="GovepnS-HVRkM9b20J2A-73" vertex="1">
                    <mxGeometry y="34" width="240" height="8" as="geometry"/>
                </mxCell>
                <mxCell id="GovepnS-HVRkM9b20J2A-77" value="Id= 009" style="html=1;align=left;spacing=0;verticalAlign=middle;strokeColor=none;fillColor=none;whiteSpace=wrap;spacingLeft=10;" parent="GovepnS-HVRkM9b20J2A-73" vertex="1">
                    <mxGeometry y="42" width="240" height="16" as="geometry"/>
                </mxCell>
                <mxCell id="GovepnS-HVRkM9b20J2A-78" value="text=&quot;use the link for donwloading the file&quot;" style="html=1;align=left;spacing=0;verticalAlign=middle;strokeColor=none;fillColor=none;whiteSpace=wrap;spacingLeft=10;" parent="GovepnS-HVRkM9b20J2A-73" vertex="1">
                    <mxGeometry y="58" width="240" height="16" as="geometry"/>
                </mxCell>
                <mxCell id="GovepnS-HVRkM9b20J2A-79" value="" style="html=1;align=center;spacing=0;verticalAlign=middle;strokeColor=none;fillColor=none;whiteSpace=wrap;" parent="GovepnS-HVRkM9b20J2A-73" vertex="1">
                    <mxGeometry y="74" width="240" height="26" as="geometry"/>
                </mxCell>
                <mxCell id="GovepnS-HVRkM9b20J2A-80" value="&amp;lt;&amp;lt;depends on&amp;gt;&amp;gt;" style="edgeStyle=none;html=1;endArrow=open;endSize=12;dashed=1;verticalAlign=bottom;rounded=0;entryX=0.882;entryY=1.072;entryDx=0;entryDy=0;entryPerimeter=0;" parent="1" target="GovepnS-HVRkM9b20J2A-48" edge="1">
                    <mxGeometry width="160" relative="1" as="geometry">
                        <mxPoint x="856" y="-580" as="sourcePoint"/>
                        <mxPoint x="1000" y="-660" as="targetPoint"/>
                    </mxGeometry>
                </mxCell>
                <mxCell id="PztZhkZLu4CGlNpXTmjy-1" value="&amp;lt;&amp;lt;trace&amp;gt;&amp;gt;" style="edgeStyle=none;html=1;endArrow=open;endSize=12;dashed=1;verticalAlign=bottom;rounded=0;exitX=0.001;exitY=0.664;exitDx=0;exitDy=0;exitPerimeter=0;" parent="1" edge="1">
                    <mxGeometry width="160" relative="1" as="geometry">
                        <mxPoint x="-183.63999999999987" y="-529.9699999999998" as="sourcePoint"/>
                        <mxPoint x="-300" y="-531" as="targetPoint"/>
                    </mxGeometry>
                </mxCell>
                <mxCell id="PztZhkZLu4CGlNpXTmjy-2" value="Repressing the group of users&amp;nbsp;&lt;div&gt;that will be intracting in the system&lt;/div&gt;" style="shape=umlActor;html=1;verticalLabelPosition=bottom;verticalAlign=top;align=center;" parent="1" vertex="1">
                    <mxGeometry x="-340" y="-580" width="40" height="90" as="geometry"/>
                </mxCell>
                <mxCell id="2" value="" style="fontStyle=1;align=center;verticalAlign=middle;childLayout=stackLayout;horizontal=1;horizontalStack=0;resizeParent=1;resizeParentMax=0;resizeLast=0;marginBottom=0;" vertex="1" parent="1">
                    <mxGeometry x="850" y="-430" width="240" height="116" as="geometry"/>
                </mxCell>
                <mxCell id="3" value="&amp;lt;&amp;lt;requirement&amp;gt;&amp;gt;" style="html=1;align=center;spacing=0;verticalAlign=middle;strokeColor=none;fillColor=none;whiteSpace=wrap;spacingTop=3;" vertex="1" parent="2">
                    <mxGeometry width="240" height="16" as="geometry"/>
                </mxCell>
                <mxCell id="4" value="Trash bin" style="html=1;align=center;spacing=0;verticalAlign=middle;strokeColor=none;fillColor=none;whiteSpace=wrap;fontStyle=1" vertex="1" parent="2">
                    <mxGeometry y="16" width="240" height="18" as="geometry"/>
                </mxCell>
                <mxCell id="5" value="" style="line;strokeWidth=0.25;fillColor=none;align=left;verticalAlign=middle;spacingTop=-1;spacingLeft=3;spacingRight=3;rotatable=0;labelPosition=right;points=[];portConstraint=eastwest;" vertex="1" parent="2">
                    <mxGeometry y="34" width="240" height="8" as="geometry"/>
                </mxCell>
                <mxCell id="6" value="&lt;span style=&quot;color: rgb(0, 0, 0);&quot;&gt;Id=010&lt;/span&gt;" style="html=1;align=left;spacing=0;verticalAlign=middle;strokeColor=none;fillColor=none;whiteSpace=wrap;spacingLeft=10;" vertex="1" parent="2">
                    <mxGeometry y="42" width="240" height="16" as="geometry"/>
                </mxCell>
                <mxCell id="7" value="&lt;span style=&quot;color: rgb(0, 0, 0);&quot;&gt;text=&quot;a place to save the delete file temporaily&quot;&lt;/span&gt;" style="html=1;align=left;spacing=0;verticalAlign=middle;strokeColor=none;fillColor=none;whiteSpace=wrap;spacingLeft=10;" vertex="1" parent="2">
                    <mxGeometry y="58" width="240" height="32" as="geometry"/>
                </mxCell>
                <mxCell id="8" value="" style="html=1;align=center;spacing=0;verticalAlign=middle;strokeColor=none;fillColor=none;whiteSpace=wrap;" vertex="1" parent="2">
                    <mxGeometry y="90" width="240" height="26" as="geometry"/>
                </mxCell>
                <mxCell id="9" value="&amp;lt;&amp;lt;depends on&amp;gt;&amp;gt;" style="edgeStyle=none;html=1;endArrow=open;endSize=12;dashed=1;verticalAlign=bottom;exitX=1;exitY=0.5;exitDx=0;exitDy=0;entryX=1;entryY=0.25;entryDx=0;entryDy=0;" edge="1" parent="1" source="7" target="GovepnS-HVRkM9b20J2A-47">
                    <mxGeometry width="160" relative="1" as="geometry">
                        <mxPoint x="1030" y="-270" as="sourcePoint"/>
                        <mxPoint x="1190" y="-270" as="targetPoint"/>
                        <Array as="points">
                            <mxPoint x="1180" y="-356"/>
                            <mxPoint x="1180" y="-710"/>
                        </Array>
                    </mxGeometry>
                </mxCell>
            </root>
        </mxGraphModel>
    </diagram>
</mxfile>